<svg width="603" height="900" xmlns="http://www.w3.org/2000/svg">
 <metadata>IcoFont Icons</metadata>

 <title>google-map</title>
  <path id="svg_1" fill="#FFC940" d="m588.5,222.8c-3.1,-11.6 -9.4,-24.2 -14.1,-35c-56,-134.6 -178.3,-182.8 -277.1,-182.8c-132.3,0 -277.9,88.6 -297.3,271.4l0,37.4c0,1.6 0.5,15.6 1.3,22.6c10.9,87.1 79.6,179.6 131,266.8c55.2,93.4 112.5,185.1 169.3,276.9c35,-59.9 69.9,-120.6 104.1,-178.9c9.4,-17.1 20.1,-34.2 29.5,-50.6c6.2,-10.9 18.1,-21.8 23.5,-31.9c55.2,-101.1 144.1,-203 144.1,-303.3l0,-41.3c0,-10.9 -13.5,-49 -14.3,-51.3zm-288.8,187.4c-38.9,0 -81.4,-19.4 -102.4,-73.1c-3.2,-8.6 -2.9,-25.7 -2.9,-27.2l0,-24.1c0,-68.4 58.1,-99.6 108.7,-99.6c62.2,0 110.3,49.8 110.3,112s-51.5,112 -113.7,112z"/>
</svg>
