<svg width="32" height="32" xmlns="http://www.w3.org/2000/svg">
    <g id="magnifying_x5F_glass">
        <g id="svg_1">
            <path id="svg_2" d="m11.336,19.738c-1.855,1.852 -4.414,4.418 -5.688,5.688c0.43,0.43 0.488,0.484 0.922,0.922c1.27,-1.273 3.832,-3.836 5.684,-5.688c-0.32,-0.289 -0.625,-0.594 -0.918,-0.922z" fill="#fff"/>
            <path id="svg_3" d="m20.133,0c-6.539,0 -11.86,5.32 -11.86,11.863c0,1.566 0.32,3.051 0.871,4.418l-9.144,9.145l6.57,6.574l9.148,-9.152c1.367,0.555 2.852,0.875 4.414,0.875c6.543,0 11.867,-5.32 11.867,-11.859c0.001,-6.544 -5.323,-11.864 -11.866,-11.864zm0,19.727c-4.332,0 -7.863,-3.531 -7.863,-7.863c0,-4.336 3.531,-7.867 7.863,-7.867c4.34,0 7.871,3.531 7.871,7.867c0,4.331 -3.531,7.863 -7.871,7.863z" fill="#fff"/>
        </g>
    </g>
    <line stroke-linecap="undefined" stroke-linejoin="undefined" id="svg_6" y2="17.151088" x2="20.072511" y1="6.26682" x1="20.072511" stroke-width="2.5" stroke="#ffffff" fill="none"/>
    <line stroke-linecap="undefined" stroke-linejoin="undefined" id="svg_8" y2="11.631805" x2="25.313807" y1="11.631805" x1="15.000162" stroke-width="2.5" stroke="#ffffff" fill="none"/>
</svg>
