<?xml version="1.0" encoding="UTF-8"?>
<svg width="1200pt" height="1200pt" version="1.1" viewBox="0 0 1200 1200" xmlns="http://www.w3.org/2000/svg">
 <g fill="#f4f8fa">
  <path d="m337.85 351.05c-4.2695-11.387 1.5-24.078 12.887-28.348s24.078 1.5 28.348 12.887c29.848 79.594 98.18 173.23 205.14 280.19 106.96 106.96 200.6 175.29 280.19 205.14 11.387 4.2695 17.156 16.961 12.887 28.348s-16.961 17.156-28.348 12.887c-86.477-32.43-184.86-104.22-295.87-215.23s-182.8-209.39-215.23-295.87z"/>
  <path d="m70.738 1129.3 766.22-303.6c2.2148-49.262-60.586-142.29-190.46-272.16s-222.9-192.68-272.16-190.46zm281.93-807.19c68.211-18.605 173.68 49.008 324.96 200.29s218.89 256.75 200.29 324.96c-1.8242 6.6836-6.6875 12.121-13.129 14.676l-825.18 326.96c-17.934 7.1055-35.688-10.648-28.582-28.582l326.96-825.18c2.5547-6.4414 7.9922-11.305 14.676-13.129z"/>
  <path d="m1091.2 235.44c12.055-1.5938 23.121 6.8867 24.715 18.941 1.5898 12.059-6.8906 23.121-18.945 24.715-69.684 9.2109-135.5 34.691-192.88 74.055-10.027 6.8789-23.734 4.3242-30.613-5.7031-6.8789-10.027-4.3242-23.734 5.7031-30.613 63.055-43.254 135.42-71.27 212.02-81.395z"/>
  <path d="m926.04 587.73c12.055-1.5938 23.117 6.8867 24.711 18.945 1.5938 12.055-6.8867 23.117-18.941 24.711-69.688 9.2109-135.5 34.695-192.88 74.055-10.027 6.8789-23.734 4.3242-30.613-5.7031-6.8789-10.027-4.3242-23.73 5.7031-30.609 63.051-43.258 135.42-71.273 212.02-81.398z"/>
  <path d="m532.86 454.95c-7.8086 9.3203-21.695 10.551-31.02 2.7422-9.3203-7.8086-10.547-21.695-2.7422-31.02 93.09-111.14 144.94-251.12 144.94-399.15 0-12.16 9.8594-22.02 22.02-22.02 12.16 0 22.02 9.8594 22.02 22.02 0 158.46-55.551 308.43-155.22 427.43z"/>
  <path d="m199.05 1122.6-39.918-18.594c14.766-31.703 22.52-66.352 22.52-102.14 0-50.727-15.605-99.051-44.238-139.58l35.965-25.41c33.844 47.902 52.309 105.09 52.309 164.99 0 42.242-9.1719 83.234-26.637 120.73z"/>
  <path d="m330.77 1068.1-39.848-18.746c22.191-47.164 33.848-98.793 33.848-152.12 0-92.652-35.332-179.7-97.691-245.69l32.008-30.246c70.008 74.086 109.72 171.93 109.72 275.94 0 59.84-13.105 117.86-38.039 170.86z"/>
  <path d="m430 1032.5-35.645-25.863c57.5-79.23 88.945-174.47 88.945-274.5 0-88.094-24.367-172.55-69.699-245.82l37.449-23.168c49.609 80.18 76.285 172.64 76.285 268.98 0 109.41-34.426 213.68-97.336 300.37z"/>
  <path d="m623.86 955.33-37.539-23.02c37.988-61.949 61.109-131.98 67.137-205.44l43.891 3.5977c-6.5977 80.391-31.914 157.06-73.488 224.86z"/>
  <path d="m404.82 612.18c5.4219 10.883 0.99609 24.102-9.8906 29.527-10.883 5.4219-24.102 0.99219-29.527-9.8906-20.059-40.266-45.832-77.465-76.688-110.44-8.3086-8.8828-7.8438-22.816 1.0352-31.125 8.8789-8.3047 22.812-7.8438 31.121 1.0352 33.777 36.105 61.996 76.824 83.949 120.89z"/>
  <path d="m434.86 699.08c0 12.16-9.8594 22.02-22.02 22.02s-22.02-9.8594-22.02-22.02c0-12.16 9.8594-22.02 22.02-22.02s22.02 9.8594 22.02 22.02" fill-rule="evenodd"/>
  <path d="m451.38 231.19c-39.52 0-71.559-32.035-71.559-71.559 0-39.52 32.039-71.559 71.559-71.559 39.523 0 71.562 32.039 71.562 71.559 0 39.523-32.039 71.559-71.562 71.559zm0-44.035c15.203 0 27.523-12.324 27.523-27.523 0-15.199-12.32-27.523-27.523-27.523-15.199 0-27.523 12.324-27.523 27.523 0 15.199 12.324 27.523 27.523 27.523z"/>
  <path d="m902.75 143.12c-39.523 0-71.562-32.039-71.562-71.562 0-39.52 32.039-71.559 71.562-71.559 39.52 0 71.559 32.039 71.559 71.559 0 39.523-32.039 71.562-71.559 71.562zm0-44.039c15.199 0 27.52-12.32 27.52-27.523 0-15.199-12.32-27.523-27.52-27.523-15.203 0-27.523 12.324-27.523 27.523 0 15.203 12.32 27.523 27.523 27.523z"/>
  <path d="m1056.9 550.46c-39.52 0-71.559-32.035-71.559-71.559 0-39.52 32.039-71.559 71.559-71.559 39.523 0 71.562 32.039 71.562 71.559 0 39.523-32.039 71.559-71.562 71.559zm0-44.035c15.203 0 27.523-12.324 27.523-27.523 0-15.199-12.32-27.523-27.523-27.523-15.199 0-27.52 12.324-27.52 27.523 0 15.199 12.32 27.523 27.52 27.523z"/>
  <path d="m732.11 363.3c0-12.164 9.8594-22.02 22.02-22.02s22.02 9.8555 22.02 22.02v88.07c0 12.16-9.8594 22.02-22.02 22.02s-22.02-9.8594-22.02-22.02z"/>
  <path d="m710.09 429.36c-12.16 0-22.016-9.8594-22.016-22.02s9.8555-22.02 22.016-22.02h88.074c12.16 0 22.02 9.8594 22.02 22.02s-9.8594 22.02-22.02 22.02z"/>
  <path d="m974.31 968.81c0-12.16 9.8555-22.02 22.02-22.02 12.16 0 22.016 9.8594 22.016 22.02v88.07c0 12.164-9.8555 22.02-22.016 22.02-12.164 0-22.02-9.8555-22.02-22.02z"/>
  <path d="m952.29 1034.9c-12.16 0-22.02-9.8594-22.02-22.02s9.8594-22.02 22.02-22.02h88.074c12.16 0 22.02 9.8594 22.02 22.02s-9.8594 22.02-22.02 22.02z"/>
  <path d="m181.65 132.11c0-12.16 9.8555-22.02 22.016-22.02 12.164 0 22.02 9.8594 22.02 22.02v88.074c0 12.16-9.8555 22.02-22.02 22.02-12.16 0-22.016-9.8594-22.016-22.02z"/>
  <path d="m159.63 198.16c-12.16 0-22.02-9.8555-22.02-22.016 0-12.16 9.8594-22.02 22.02-22.02h88.074c12.16 0 22.02 9.8594 22.02 22.02 0 12.16-9.8594 22.016-22.02 22.016z"/>
  <path d="m1040.4 704.59c0 12.16-9.8594 22.02-22.02 22.02s-22.016-9.8594-22.016-22.02c0-12.16 9.8555-22.016 22.016-22.016s22.02 9.8555 22.02 22.016" fill-rule="evenodd"/>
  <path d="m1117.4 880.73c0 12.16-9.8555 22.02-22.016 22.02-12.16 0-22.02-9.8594-22.02-22.02s9.8594-22.02 22.02-22.02c12.16 0 22.016 9.8594 22.016 22.02" fill-rule="evenodd"/>
  <path d="m798.16 209.18c0 12.16-9.8555 22.016-22.016 22.016-12.16 0-22.02-9.8555-22.02-22.016 0-12.16 9.8594-22.02 22.02-22.02 12.16 0 22.016 9.8594 22.016 22.02" fill-rule="evenodd"/>
  <path d="m1194.5 264.22c0 12.16-9.8594 22.02-22.02 22.02-12.16 0-22.02-9.8594-22.02-22.02s9.8594-22.016 22.02-22.016c12.16 0 22.02 9.8555 22.02 22.016" fill-rule="evenodd"/>
  <path d="m335.78 55.047c0 12.16-9.8594 22.016-22.02 22.016-12.16 0-22.02-9.8555-22.02-22.016s9.8594-22.02 22.02-22.02c12.16 0 22.02 9.8594 22.02 22.02" fill-rule="evenodd"/>
 </g>
</svg>
